<svg xmlns="http://www.w3.org/2000/svg" xmlns:xlink="http://www.w3.org/1999/xlink" width="500" zoomAndPan="magnify" viewBox="0 0 375 374.999991" height="500" preserveAspectRatio="xMidYMid meet" version="1.2"><defs><clipPath id="fa34b7a159"><path d="M 17 215 L 32 215 L 32 231.167969 L 17 231.167969 Z M 17 215 "/></clipPath><clipPath id="633cf86f63"><path d="M 33 215 L 48 215 L 48 231.167969 L 33 231.167969 Z M 33 215 "/></clipPath><clipPath id="529d9b8808"><path d="M 48 215 L 63 215 L 63 231.167969 L 48 231.167969 Z M 48 215 "/></clipPath><clipPath id="1034c4304e"><path d="M 71 215 L 87 215 L 87 231.167969 L 71 231.167969 Z M 71 215 "/></clipPath><clipPath id="0635fb57c0"><path d="M 122 215 L 138 215 L 138 231.167969 L 122 231.167969 Z M 122 215 "/></clipPath><clipPath id="d99ad0b3f2"><path d="M 178 215 L 193 215 L 193 231.167969 L 178 231.167969 Z M 178 215 "/></clipPath><clipPath id="88fe2f4f05"><path d="M 193 215 L 209 215 L 209 231.167969 L 193 231.167969 Z M 193 215 "/></clipPath><clipPath id="c36951ab11"><path d="M 209 215 L 224 215 L 224 231.167969 L 209 231.167969 Z M 209 215 "/></clipPath><clipPath id="cbff88b19f"><path d="M 224 211 L 242 211 L 242 231.167969 L 224 231.167969 Z M 224 211 "/></clipPath><clipPath id="de362e7430"><path d="M 278 215 L 293 215 L 293 231.167969 L 278 231.167969 Z M 278 215 "/></clipPath><clipPath id="23352934d8"><path d="M 294 215 L 309 215 L 309 231.167969 L 294 231.167969 Z M 294 215 "/></clipPath><clipPath id="84d61d4c54"><path d="M 316 215 L 331 215 L 331 231.167969 L 316 231.167969 Z M 316 215 "/></clipPath><clipPath id="08c20637e2"><path d="M 339 215 L 355 215 L 355 231.167969 L 339 231.167969 Z M 339 215 "/></clipPath><clipPath id="5cf8704920"><path d="M 0 144.167969 L 375 144.167969 L 375 198 L 0 198 Z M 0 144.167969 "/></clipPath></defs><g id="510e1f4d60"><path style=" stroke:none;fill-rule:nonzero;fill:#e8380d;fill-opacity:1;" d="M 5.5625 223.652344 L 10.191406 223.652344 C 15.386719 223.652344 17.292969 219.21875 17.667969 217.464844 C 18.472656 213.65625 16.722656 211.25 12.980469 211.25 L 4.152344 211.25 L 0.0429688 230.652344 L 4.078125 230.652344 Z M 6.269531 220.300781 L 7.476562 214.601562 L 10.679688 214.601562 C 13.183594 214.601562 14.070312 215.378906 13.671875 217.273438 C 13.484375 218.140625 13.027344 220.300781 10.015625 220.300781 Z M 6.269531 220.300781 "/><g clip-rule="nonzero" clip-path="url(#fa34b7a159)"><path style=" stroke:none;fill-rule:nonzero;fill:#e8380d;fill-opacity:1;" d="M 31.3125 220.058594 C 32.0625 216.515625 28.503906 215.898438 26.488281 215.898438 C 23.550781 215.898438 20.378906 216.515625 19.015625 220.921875 L 22.652344 220.921875 C 22.933594 220.082031 23.503906 218.921875 25.390625 218.921875 C 26.359375 218.921875 27.847656 219.003906 27.511719 220.597656 C 27.339844 221.410156 26.558594 221.652344 25.953125 221.730469 L 22.449219 222.246094 C 19.976562 222.597656 17.902344 224.027344 17.308594 226.839844 C 16.675781 229.8125 18.625 231.03125 20.78125 231.03125 C 23.335938 231.03125 24.800781 229.839844 25.851562 228.945312 C 25.761719 229.757812 25.769531 229.972656 25.839844 230.652344 L 29.902344 230.652344 L 30.023438 230.082031 C 29.601562 229.921875 29.300781 229.542969 29.664062 227.839844 Z M 26.476562 225.488281 C 26.101562 227.242188 24.175781 228.328125 22.507812 228.328125 C 21.78125 228.328125 20.84375 227.921875 21.125 226.597656 C 21.457031 225.03125 22.6875 224.679688 24.140625 224.4375 C 25.757812 224.191406 26.421875 223.949219 26.863281 223.648438 Z M 26.476562 225.488281 "/></g><g clip-rule="nonzero" clip-path="url(#633cf86f63)"><path style=" stroke:none;fill-rule:nonzero;fill:#e8380d;fill-opacity:1;" d="M 43.328125 220.652344 C 43.359375 219.734375 43.246094 218.761719 41.199219 218.761719 C 39.152344 218.761719 38.71875 219.542969 38.585938 220.167969 C 38.105469 222.4375 47.414062 220.789062 46.296875 226.085938 C 45.410156 230.273438 41.210938 231.027344 38.976562 231.027344 C 35.71875 231.027344 32.433594 229.894531 33.136719 226.058594 L 37.015625 226.058594 C 36.757812 227.273438 37.324219 228.164062 39.691406 228.164062 C 41.628906 228.164062 42.285156 227.21875 42.402344 226.679688 C 42.914062 224.273438 33.644531 226.085938 34.78125 220.707031 C 35.226562 218.601562 37.121094 215.894531 41.585938 215.894531 C 44.390625 215.894531 47.578125 216.601562 47.015625 220.652344 Z M 43.328125 220.652344 "/></g><g clip-rule="nonzero" clip-path="url(#529d9b8808)"><path style=" stroke:none;fill-rule:nonzero;fill:#e8380d;fill-opacity:1;" d="M 58.449219 220.652344 C 58.480469 219.734375 58.363281 218.761719 56.320312 218.761719 C 54.273438 218.761719 53.835938 219.542969 53.707031 220.167969 C 53.226562 222.4375 62.535156 220.789062 61.417969 226.085938 C 60.527344 230.273438 56.332031 231.027344 54.097656 231.027344 C 50.839844 231.027344 47.550781 229.894531 48.257812 226.058594 L 52.136719 226.058594 C 51.878906 227.273438 52.441406 228.164062 54.808594 228.164062 C 56.75 228.164062 57.40625 227.21875 57.519531 226.679688 C 58.03125 224.273438 48.765625 226.085938 49.902344 220.707031 C 50.347656 218.601562 52.238281 215.894531 56.707031 215.894531 C 59.507812 215.894531 62.695312 216.601562 62.132812 220.652344 Z M 58.449219 220.652344 "/></g><path style=" stroke:none;fill-rule:nonzero;fill:#e8380d;fill-opacity:1;" d="M 70.648438 214.570312 L 66.882812 214.570312 L 67.625 211.058594 L 71.390625 211.058594 Z M 70.292969 216.273438 L 67.246094 230.652344 L 63.476562 230.652344 L 66.523438 216.273438 Z M 70.292969 216.273438 "/><g clip-rule="nonzero" clip-path="url(#1034c4304e)"><path style=" stroke:none;fill-rule:nonzero;fill:#e8380d;fill-opacity:1;" d="M 86.167969 223.460938 C 87.265625 218.277344 84.296875 215.894531 80.445312 215.894531 C 76.597656 215.894531 72.617188 218.277344 71.519531 223.460938 C 70.421875 228.652344 73.394531 231.03125 77.242188 231.03125 C 81.089844 231.03125 85.066406 228.652344 86.167969 223.460938 M 82.289062 223.460938 C 81.898438 225.296875 80.824219 227.839844 77.914062 227.839844 C 75.007812 227.839844 75.007812 225.296875 75.398438 223.460938 C 75.785156 221.625 76.863281 219.085938 79.773438 219.085938 C 82.675781 219.085938 82.675781 221.625 82.289062 223.460938 "/></g><path style=" stroke:none;fill-rule:nonzero;fill:#e8380d;fill-opacity:1;" d="M 100.265625 230.652344 L 96.492188 230.652344 L 98.34375 221.921875 C 98.566406 220.867188 98.886719 219.085938 96.492188 219.085938 C 94.824219 219.085938 93.292969 220.222656 92.828125 222.40625 L 91.085938 230.652344 L 87.316406 230.652344 L 90.359375 216.273438 L 93.964844 216.273438 L 93.519531 218.382812 L 93.574219 218.382812 C 94.269531 217.515625 95.6875 215.894531 98.40625 215.894531 C 101.207031 215.894531 103.039062 217.542969 102.367188 220.707031 Z M 100.265625 230.652344 "/><path style=" stroke:none;fill-rule:nonzero;fill:#003b90;fill-opacity:1;" d="M 120.230469 216.273438 L 122.570312 216.273438 L 122.003906 218.976562 L 119.660156 218.976562 L 118.007812 226.785156 C 117.828125 227.625 117.789062 227.949219 119.320312 227.949219 C 119.566406 227.949219 119.839844 227.921875 120.113281 227.894531 L 119.507812 230.761719 C 118.910156 230.785156 118.3125 230.8125 117.71875 230.8125 L 117.230469 230.8125 C 113.976562 230.8125 113.648438 229.570312 114.042969 227.707031 L 115.890625 218.976562 L 113.953125 218.976562 L 114.527344 216.273438 L 116.464844 216.273438 L 117.289062 212.386719 L 121.054688 212.386719 Z M 120.230469 216.273438 "/><g clip-rule="nonzero" clip-path="url(#0635fb57c0)"><path style=" stroke:none;fill-rule:nonzero;fill:#003b90;fill-opacity:1;" d="M 137.605469 223.460938 C 138.703125 218.277344 135.734375 215.894531 131.886719 215.894531 C 128.035156 215.894531 124.0625 218.277344 122.960938 223.460938 C 121.867188 228.652344 124.835938 231.03125 128.683594 231.03125 C 132.53125 231.03125 136.507812 228.652344 137.605469 223.460938 M 133.730469 223.460938 C 133.339844 225.296875 132.265625 227.839844 129.359375 227.839844 C 126.449219 227.839844 126.449219 225.296875 126.839844 223.460938 C 127.226562 221.625 128.304688 219.085938 131.210938 219.085938 C 134.113281 219.085938 134.121094 221.625 133.730469 223.460938 "/></g><path style=" stroke:none;fill-rule:nonzero;fill:#003b90;fill-opacity:1;" d="M 163.964844 214.679688 L 153.710938 214.679688 L 152.84375 218.761719 L 162.269531 218.761719 L 161.542969 222.191406 L 152.117188 222.191406 L 151.054688 227.21875 L 161.765625 227.21875 L 161.042969 230.652344 L 146.371094 230.652344 L 150.476562 211.25 L 164.691406 211.25 Z M 163.964844 214.679688 "/><path style=" stroke:none;fill-rule:nonzero;fill:#003b90;fill-opacity:1;" d="M 176.917969 230.652344 L 172.265625 230.652344 L 170.703125 226.328125 L 167.3125 230.652344 L 162.761719 230.652344 L 169.183594 223.328125 L 165.992188 216.273438 L 170.566406 216.273438 L 172.105469 220.460938 L 175.359375 216.273438 L 179.804688 216.273438 L 173.597656 223.328125 Z M 176.917969 230.652344 "/><g clip-rule="nonzero" clip-path="url(#d99ad0b3f2)"><path style=" stroke:none;fill-rule:nonzero;fill:#003b90;fill-opacity:1;" d="M 191.976562 225.410156 C 191.527344 226.894531 189.492188 231.027344 184.242188 231.027344 C 178.863281 231.027344 178.496094 226.894531 179.140625 223.867188 C 180.121094 219.21875 182.84375 215.894531 187.6875 215.894531 C 189.953125 215.894531 193.449219 216.925781 192.851562 221.410156 L 189.027344 221.410156 C 189.0625 220.460938 188.789062 218.972656 187.015625 219.082031 C 184.644531 219.082031 183.523438 221.464844 183.148438 223.246094 C 182.8125 224.816406 182.207031 227.921875 185.0625 227.921875 C 186.972656 227.921875 188.011719 226.082031 188.152344 225.410156 Z M 191.976562 225.410156 "/></g><g clip-rule="nonzero" clip-path="url(#88fe2f4f05)"><path style=" stroke:none;fill-rule:nonzero;fill:#003b90;fill-opacity:1;" d="M 203.171875 226.433594 C 202.65625 227.460938 201.464844 228 200.414062 228 C 197.375 228 197.675781 225.570312 197.796875 224.488281 L 207.617188 224.488281 L 207.761719 223.8125 C 209.152344 217.25 205.535156 215.898438 202.710938 215.898438 C 196.441406 215.898438 194.671875 221.4375 194.304688 223.164062 C 193.054688 229.085938 195.738281 231.027344 199.777344 231.027344 C 202.222656 231.027344 205.316406 229.894531 207.046875 226.433594 Z M 198.421875 222.027344 C 199.042969 220.140625 200.21875 219.003906 201.996094 219.003906 C 203.210938 219.003906 204.539062 219.707031 204.265625 222.027344 Z M 198.421875 222.027344 "/></g><g clip-rule="nonzero" clip-path="url(#c36951ab11)"><path style=" stroke:none;fill-rule:nonzero;fill:#003b90;fill-opacity:1;" d="M 218.488281 226.433594 C 217.972656 227.460938 216.78125 228 215.730469 228 C 212.691406 228 212.992188 225.570312 213.109375 224.488281 L 222.9375 224.488281 L 223.082031 223.8125 C 224.46875 217.25 220.851562 215.898438 218.027344 215.898438 C 211.753906 215.898438 209.988281 221.4375 209.625 223.164062 C 208.367188 229.085938 211.054688 231.027344 215.09375 231.027344 C 217.539062 231.027344 220.632812 229.894531 222.359375 226.433594 Z M 213.738281 222.027344 C 214.355469 220.140625 215.535156 219.003906 217.3125 219.003906 C 218.523438 219.003906 219.859375 219.707031 219.582031 222.027344 Z M 213.738281 222.027344 "/></g><g clip-rule="nonzero" clip-path="url(#cbff88b19f)"><path style=" stroke:none;fill-rule:nonzero;fill:#003b90;fill-opacity:1;" d="M 241.675781 211.25 L 237.90625 211.25 L 236.445312 218.140625 L 236.394531 218.140625 C 235.996094 217.222656 235.144531 215.898438 232.722656 215.898438 C 229.574219 215.898438 226.257812 218.328125 225.203125 223.300781 C 224.367188 227.246094 225.347656 231.027344 229.601562 231.027344 C 231.160156 231.027344 232.949219 230.464844 234.207031 228.839844 L 234.265625 228.839844 L 233.878906 230.652344 L 237.566406 230.652344 Z M 229.023438 223.570312 C 229.507812 221.300781 230.765625 219.164062 233.160156 219.164062 C 235.742188 219.164062 235.898438 221.488281 235.410156 223.789062 C 234.960938 225.921875 233.59375 227.921875 231.199219 227.921875 C 228.777344 227.921875 228.667969 225.273438 229.023438 223.570312 "/></g><path style=" stroke:none;fill-rule:nonzero;fill:#003b90;fill-opacity:1;" d="M 255.574219 223.652344 L 260.207031 223.652344 C 265.398438 223.652344 267.308594 219.21875 267.675781 217.464844 C 268.484375 213.65625 266.734375 211.25 262.992188 211.25 L 254.160156 211.25 L 250.054688 230.652344 L 254.09375 230.652344 Z M 256.28125 220.300781 L 257.492188 214.601562 L 260.691406 214.601562 C 263.199219 214.601562 264.082031 215.378906 263.679688 217.273438 C 263.496094 218.140625 263.039062 220.300781 260.023438 220.300781 Z M 256.28125 220.300781 "/><path style=" stroke:none;fill-rule:nonzero;fill:#003b90;fill-opacity:1;" d="M 270.578125 216.273438 L 274.1875 216.273438 L 273.664062 218.761719 L 273.714844 218.761719 C 274.804688 217.300781 275.960938 215.898438 278.253906 215.898438 C 278.492188 215.898438 278.726562 215.925781 278.964844 215.953125 L 278.15625 219.789062 C 277.839844 219.734375 277.4375 219.734375 277.089844 219.734375 C 274.152344 219.734375 273.230469 221.570312 272.890625 223.167969 L 271.304688 230.652344 L 267.535156 230.652344 Z M 270.578125 216.273438 "/><g clip-rule="nonzero" clip-path="url(#de362e7430)"><path style=" stroke:none;fill-rule:nonzero;fill:#003b90;fill-opacity:1;" d="M 287.871094 226.433594 C 287.355469 227.460938 286.167969 228 285.117188 228 C 282.074219 228 282.375 225.570312 282.496094 224.488281 L 292.324219 224.488281 L 292.464844 223.8125 C 293.855469 217.25 290.238281 215.898438 287.410156 215.898438 C 281.140625 215.898438 279.375 221.4375 279.007812 223.164062 C 277.75 229.085938 280.441406 231.027344 284.476562 231.027344 C 286.921875 231.027344 290.015625 229.894531 291.746094 226.433594 Z M 283.121094 222.027344 C 283.742188 220.140625 284.921875 219.003906 286.695312 219.003906 C 287.910156 219.003906 289.242188 219.707031 288.964844 222.027344 Z M 283.121094 222.027344 "/></g><g clip-rule="nonzero" clip-path="url(#23352934d8)"><path style=" stroke:none;fill-rule:nonzero;fill:#003b90;fill-opacity:1;" d="M 307.46875 225.410156 C 307.019531 226.894531 304.988281 231.027344 299.738281 231.027344 C 294.355469 231.027344 293.992188 226.894531 294.632812 223.867188 C 295.617188 219.21875 298.335938 215.894531 303.183594 215.894531 C 305.445312 215.894531 308.941406 216.925781 308.34375 221.410156 L 304.519531 221.410156 C 304.558594 220.460938 304.28125 218.972656 302.511719 219.082031 C 300.140625 219.082031 299.019531 221.464844 298.640625 223.246094 C 298.304688 224.816406 297.703125 227.921875 300.558594 227.921875 C 302.46875 227.921875 303.503906 226.082031 303.648438 225.410156 Z M 307.46875 225.410156 "/></g><path style=" stroke:none;fill-rule:nonzero;fill:#003b90;fill-opacity:1;" d="M 316.585938 214.570312 L 312.820312 214.570312 L 313.566406 211.058594 L 317.328125 211.058594 Z M 316.226562 216.273438 L 313.183594 230.652344 L 309.417969 230.652344 L 312.460938 216.273438 Z M 316.226562 216.273438 "/><g clip-rule="nonzero" clip-path="url(#84d61d4c54)"><path style=" stroke:none;fill-rule:nonzero;fill:#003b90;fill-opacity:1;" d="M 326.929688 220.652344 C 326.960938 219.734375 326.847656 218.761719 324.800781 218.761719 C 322.75 218.761719 322.320312 219.542969 322.1875 220.167969 C 321.707031 222.4375 331.015625 220.789062 329.898438 226.085938 C 329.011719 230.273438 324.816406 231.027344 322.578125 231.027344 C 319.320312 231.027344 316.035156 229.894531 316.742188 226.058594 L 320.617188 226.058594 C 320.363281 227.273438 320.925781 228.164062 323.292969 228.164062 C 325.230469 228.164062 325.886719 227.21875 326.003906 226.679688 C 326.515625 224.273438 317.246094 226.085938 318.382812 220.707031 C 318.832031 218.601562 320.722656 215.894531 325.191406 215.894531 C 327.992188 215.894531 331.183594 216.601562 330.617188 220.652344 Z M 326.929688 220.652344 "/></g><path style=" stroke:none;fill-rule:nonzero;fill:#003b90;fill-opacity:1;" d="M 338.925781 214.570312 L 335.15625 214.570312 L 335.902344 211.058594 L 339.667969 211.058594 Z M 338.566406 216.273438 L 335.519531 230.652344 L 331.753906 230.652344 L 334.796875 216.273438 Z M 338.566406 216.273438 "/><g clip-rule="nonzero" clip-path="url(#08c20637e2)"><path style=" stroke:none;fill-rule:nonzero;fill:#003b90;fill-opacity:1;" d="M 354.398438 223.460938 C 355.496094 218.277344 352.527344 215.894531 348.679688 215.894531 C 344.828125 215.894531 340.851562 218.277344 339.75 223.460938 C 338.652344 228.652344 341.621094 231.03125 345.476562 231.03125 C 349.320312 231.03125 353.296875 228.652344 354.398438 223.460938 M 350.523438 223.460938 C 350.128906 225.296875 349.054688 227.839844 346.148438 227.839844 C 343.238281 227.839844 343.238281 225.296875 343.628906 223.460938 C 344.019531 221.625 345.09375 219.085938 348.003906 219.085938 C 350.910156 219.085938 350.910156 221.625 350.523438 223.460938 "/></g><path style=" stroke:none;fill-rule:nonzero;fill:#003b90;fill-opacity:1;" d="M 368.71875 230.652344 L 364.953125 230.652344 L 366.800781 221.921875 C 367.023438 220.867188 367.347656 219.085938 364.949219 219.085938 C 363.28125 219.085938 361.75 220.222656 361.285156 222.40625 L 359.539062 230.652344 L 355.769531 230.652344 L 358.816406 216.273438 L 362.421875 216.273438 L 361.976562 218.382812 L 362.027344 218.382812 C 362.722656 217.515625 364.144531 215.894531 366.863281 215.894531 C 369.664062 215.894531 371.496094 217.542969 370.824219 220.707031 Z M 368.71875 230.652344 "/><g clip-rule="nonzero" clip-path="url(#5cf8704920)"><path style=" stroke:none;fill-rule:nonzero;fill:#003b90;fill-opacity:1;" d="M 72.078125 144.304688 C 70.234375 144.304688 67.324219 144.480469 66.015625 144.757812 C 63.257812 145.351562 61.519531 146.363281 59.898438 148.128906 C 59.390625 148.691406 58.371094 149.957031 57.191406 151.90625 L 40.59375 179.484375 L 36.292969 151.230469 C 36.0625 149.769531 35.753906 148.765625 35.296875 147.867188 C 34.484375 146.277344 33.289062 145.160156 30.894531 144.648438 C 30.117188 144.480469 28.617188 144.308594 26.890625 144.308594 L 10.960938 144.308594 L 0 196.085938 L 16.667969 196.085938 L 23.410156 164.222656 L 23.835938 164.222656 L 29.023438 196.085938 L 37.183594 196.085938 C 38.316406 196.085938 39.273438 196.046875 39.925781 195.941406 C 42.089844 195.585938 43.308594 194.703125 45.222656 191.476562 L 61.519531 164.222656 L 62.015625 164.222656 L 55.265625 196.085938 L 71.863281 196.085938 L 82.8125 144.308594 Z M 103.703125 153.40625 L 104.773438 148.390625 C 104.9375 147.546875 105.007812 146.980469 104.960938 146.558594 C 104.824219 145.4375 104.121094 144.675781 102.980469 144.414062 C 102.667969 144.339844 102.132812 144.304688 101.453125 144.304688 L 89.34375 144.304688 L 87.417969 153.40625 Z M 102.042969 161.320312 L 94.664062 196.085938 L 78.390625 196.085938 L 86.621094 157.234375 L 98.730469 157.234375 C 99.40625 157.234375 99.945312 157.273438 100.257812 157.34375 C 101.402344 157.605469 102.101562 158.363281 102.234375 159.488281 C 102.285156 159.90625 102.210938 160.476562 102.042969 161.320312 M 152.535156 158.992188 C 149.5625 156.941406 146.042969 156.488281 142.152344 156.488281 C 137.195312 156.488281 130.863281 158.011719 124.957031 162.148438 L 125.113281 161.351562 C 125.269531 160.535156 125.3125 160.082031 125.300781 159.714844 C 125.265625 158.65625 124.835938 157.914062 123.8125 157.542969 C 123.347656 157.382812 122.691406 157.234375 120.910156 157.234375 L 109.445312 157.234375 L 101.222656 196.085938 L 117.765625 196.085938 L 121.375 179.027344 C 122.050781 175.980469 122.710938 174.140625 123.320312 172.902344 C 125.039062 169.425781 128.148438 167.332031 132.378906 167.164062 C 137.941406 166.933594 140.164062 170.050781 138.992188 175.621094 L 134.601562 196.085938 L 151.082031 196.085938 L 155.394531 175.710938 C 156.902344 168.601562 158.179688 162.875 152.535156 158.992188 M 248.601562 176.253906 C 247.121094 183.261719 242.574219 187.988281 237.394531 187.988281 C 232.363281 187.988281 229.695312 183.15625 231.113281 176.4375 C 232.496094 169.914062 237.023438 165.28125 241.921875 165.28125 C 247.171875 165.28125 250.1875 168.78125 248.601562 176.253906 M 249.824219 156.046875 C 244.128906 156.046875 239.90625 157.226562 234.59375 160.671875 L 237.152344 148.554688 C 237.332031 147.683594 237.40625 147.125 237.378906 146.742188 C 237.308594 145.730469 236.808594 144.925781 235.839844 144.546875 C 235.449219 144.394531 234.832031 144.308594 233.636719 144.308594 L 221.640625 144.308594 L 210.679688 196.089844 L 227.15625 196.089844 L 227.894531 192.644531 C 231.613281 195.433594 234.734375 196.753906 239.957031 196.753906 C 251.847656 196.753906 262.109375 189.339844 264.863281 176.359375 C 267.46875 164.046875 261.441406 156.046875 249.824219 156.046875 M 351.097656 164.027344 C 354.558594 163.929688 359.984375 164.335938 358.222656 171.496094 C 351.152344 171.664062 334.984375 171.632812 327.945312 175.90625 C 324.398438 178.058594 322.050781 180.820312 321.226562 184.71875 C 319.230469 194.097656 326.695312 197.316406 334.839844 197.25 C 341.3125 197.199219 347.691406 195.058594 354.101562 192.34375 C 353.914062 193.597656 353.871094 194.867188 353.933594 196.082031 L 370.980469 196.082031 C 369.742188 194.003906 369.628906 192.765625 370.269531 189.84375 L 374.453125 170.125 C 375.125 166.964844 375.410156 163.964844 373.925781 161.46875 C 370.699219 156.039062 359.25 155.894531 353.0625 155.894531 C 347.355469 155.894531 337.421875 156.472656 332.117188 160.519531 C 328.960938 162.929688 327.316406 165.792969 326.015625 169.320312 L 341.804688 169.320312 C 343.75 164.863281 347.632812 164.121094 351.097656 164.027344 M 356.625 177.957031 C 356.203125 179.21875 355.292969 181.28125 354.039062 182.601562 C 351.226562 185.675781 345.964844 187.230469 342.492188 187.230469 C 340.199219 187.230469 337.027344 186.117188 337.667969 183.03125 C 338.578125 178.78125 345.308594 178.546875 348.113281 178.394531 C 350.929688 178.242188 356.625 177.957031 356.625 177.957031 M 320.152344 179.082031 C 320.523438 176.660156 320.933594 174.386719 320.894531 171.972656 C 320.878906 169.105469 319.816406 166.246094 318.453125 164.117188 C 314.238281 157.453125 305.683594 156.128906 297.75 156.128906 C 291.355469 156.128906 284.226562 156.941406 278.015625 160.964844 C 272.285156 164.707031 268.511719 170.0625 267.164062 176.445312 C 263.871094 191.992188 276.601562 197.222656 289.195312 197.199219 C 300.644531 197.171875 311.546875 193.898438 318.285156 184.550781 C 318.515625 184.199219 318.390625 183.835938 317.871094 183.835938 L 301.066406 183.835938 C 298.519531 186.800781 295.980469 188.28125 291.847656 188.28125 C 286.382812 188.28125 282.691406 184.914062 283.574219 179.082031 Z M 296.855469 163.988281 C 301.242188 163.816406 305.898438 166.777344 304.332031 172.34375 L 285.558594 172.34375 C 285.558594 172.34375 287.234375 164.375 296.855469 163.988281 M 211.199219 179.082031 C 211.570312 176.660156 211.980469 174.386719 211.9375 171.972656 C 211.925781 169.105469 210.863281 166.246094 209.5 164.117188 C 205.285156 157.453125 196.726562 156.128906 188.796875 156.128906 C 182.40625 156.128906 175.273438 156.941406 169.0625 160.964844 C 163.328125 164.707031 159.5625 170.0625 158.207031 176.445312 C 154.914062 191.992188 167.65625 197.222656 180.238281 197.199219 C 191.6875 197.171875 202.597656 193.898438 209.332031 184.550781 C 209.558594 184.199219 209.433594 183.835938 208.917969 183.835938 L 192.113281 183.835938 C 189.5625 186.800781 187.027344 188.28125 182.894531 188.28125 C 177.429688 188.28125 173.738281 184.914062 174.617188 179.082031 Z M 187.902344 163.988281 C 192.289062 163.816406 196.945312 166.777344 195.378906 172.34375 L 176.605469 172.34375 C 176.605469 172.34375 178.277344 164.375 187.902344 163.988281 "/></g></g></svg>