<svg xmlns="http://www.w3.org/2000/svg" xmlns:xlink="http://www.w3.org/1999/xlink" width="390" zoomAndPan="magnify" viewBox="0 0 292.5 54.75" height="73" preserveAspectRatio="xMidYMid meet" version="1.2"><defs><clipPath id="ffcf789384"><path d="M 0.414062 0 L 291.585938 0 L 291.585938 54.5 L 0.414062 54.5 Z M 0.414062 0 "/></clipPath></defs><g id="577c81b8b0"><g clip-rule="nonzero" clip-path="url(#ffcf789384)"><path style=" stroke:none;fill-rule:nonzero;fill:#ffffff;fill-opacity:1;" d="M 0.414062 0 L 291.585938 0 L 291.585938 54.5 L 0.414062 54.5 Z M 0.414062 0 "/><path style=" stroke:none;fill-rule:nonzero;fill:#ffffff;fill-opacity:1;" d="M 0.414062 0 L 291.585938 0 L 291.585938 54.5 L 0.414062 54.5 Z M 0.414062 0 "/></g><path style=" stroke:none;fill-rule:nonzero;fill:#000000;fill-opacity:1;" d="M 129.363281 43.566406 C 125.214844 43.566406 121.832031 41.339844 121.832031 39.003906 L 121.832031 26.445312 L 128.375 26.445312 L 128.375 37.875 C 128.375 38.671875 129.199219 39.332031 130.1875 39.332031 C 131.207031 39.332031 132.03125 38.671875 132.03125 37.875 L 132.03125 26.445312 L 138.570312 26.445312 L 138.570312 39.003906 C 138.570312 41.339844 135.21875 43.566406 131.039062 43.566406 Z M 191.5 43.566406 C 195.648438 43.566406 199.003906 41.339844 199.003906 39.003906 L 199.003906 26.414062 L 192.460938 26.414062 L 192.460938 37.875 C 192.460938 38.671875 191.636719 39.332031 190.621094 39.332031 C 189.605469 39.332031 188.808594 38.671875 188.808594 37.875 L 188.808594 26.414062 L 182.292969 26.414062 L 182.292969 39.003906 C 182.292969 41.339844 185.648438 43.566406 189.796875 43.566406 Z M 152.722656 23.367188 L 156.40625 23.367188 C 157.890625 23.367188 159.070312 22.15625 159.070312 20.699219 L 159.070312 18.199219 L 152.722656 18.199219 Z M 159.097656 26.445312 L 152.75 26.445312 L 152.75 43.152344 L 159.097656 43.152344 Z M 228.710938 39.800781 C 228.710938 42.519531 226.898438 42.90625 226.046875 43.152344 C 224.917969 43.480469 222.996094 43.675781 220.4375 43.675781 C 218.210938 43.675781 215.792969 43.566406 214.144531 42.492188 C 212.523438 41.421875 212.496094 39.359375 212.496094 38.921875 L 212.496094 38.011719 C 212.496094 35.375 213.761719 34.277344 215.464844 33.863281 C 217.167969 33.480469 220.492188 33.066406 221.234375 32.929688 C 222.113281 32.765625 222.113281 31.691406 222.113281 31.390625 C 222.113281 31.058594 222.085938 30.234375 221.316406 30.125 C 220.300781 29.960938 216.34375 30.234375 214.667969 30.511719 L 214.667969 26.71875 C 215.382812 26.472656 217.992188 26.058594 219.640625 26.058594 C 221.289062 26.058594 222.582031 26.085938 224.421875 26.386719 C 226.621094 26.746094 228.65625 27.625 228.65625 29.492188 L 228.65625 39.800781 Z M 220.605469 39.578125 C 222.445312 39.578125 222.226562 38.808594 222.226562 38.234375 L 222.226562 36.390625 C 221.648438 36.445312 220.960938 36.445312 220.660156 36.5 C 220 36.585938 218.898438 37.1875 218.898438 38.179688 L 218.898438 38.289062 C 218.898438 38.617188 219.011719 39.578125 220.605469 39.578125 M 120.488281 18.199219 L 105.785156 18.199219 C 103.230469 18.199219 101.167969 20.261719 101.167969 22.816406 L 101.167969 43.152344 L 108.78125 43.152344 L 108.78125 32.792969 L 118.785156 32.792969 L 118.785156 27.707031 L 108.753906 27.707031 L 108.753906 24.820312 C 108.753906 23.859375 109.550781 23.0625 110.511719 23.0625 L 120.460938 23.0625 L 120.460938 18.199219 Z M 142.253906 18.199219 L 142.253906 23.394531 L 146.019531 23.394531 C 147.585938 23.394531 148.875 22.101562 148.875 20.480469 L 148.875 18.199219 Z M 138.597656 47.90625 L 144.230469 47.90625 C 146.789062 47.90625 148.847656 45.84375 148.847656 43.289062 L 148.847656 26.445312 L 142.226562 26.445312 L 142.226562 43.125 C 142.226562 43.949219 141.539062 44.636719 140.714844 44.636719 L 138.597656 44.636719 Z M 175.699219 32.957031 L 174.296875 32.957031 L 180.671875 26.414062 L 173.5 26.414062 L 169.378906 30.402344 L 169.378906 18.199219 L 162.945312 18.199219 L 162.945312 43.152344 L 169.378906 43.152344 L 169.378906 35.675781 L 171.878906 35.675781 C 172.59375 35.675781 173.171875 36.253906 173.171875 36.96875 L 173.171875 43.179688 L 179.683594 43.179688 L 179.683594 36.941406 C 179.683594 34.742188 177.898438 32.957031 175.699219 32.957031 M 208.292969 31.886719 C 208.292969 31.058594 208.953125 30.429688 209.777344 30.402344 C 210.269531 30.375 211.78125 30.457031 212.550781 30.539062 L 212.550781 26.445312 C 209.859375 26.058594 207.496094 26.25 206.726562 26.304688 C 204.003906 26.472656 202.136719 28.367188 202.136719 30.894531 L 202.136719 43.152344 L 208.292969 43.152344 Z M 208.292969 31.886719 "/><path style=" stroke:none;fill-rule:nonzero;fill:#003b83;fill-opacity:1;" d="M 73.191406 42.960938 C 74.839844 42.960938 76.269531 41.886719 76.792969 40.433594 L 80.941406 29 L 88.332031 29 C 91.605469 29 94.269531 26.332031 94.269531 23.0625 L 94.269531 18.089844 L 77.726562 18.089844 C 74.757812 18.089844 72.203125 19.957031 71.238281 22.597656 L 63.820312 42.960938 Z M 73.191406 42.960938 "/><path style=" stroke:none;fill-rule:nonzero;fill:#00b9ef;fill-opacity:1;" d="M 73.796875 5.0625 C 68.300781 5.0625 63.847656 9.515625 63.847656 15.011719 L 63.847656 34 L 68.382812 21.550781 C 69.785156 17.730469 73.4375 14.984375 77.753906 14.984375 L 91.246094 14.984375 C 94.515625 14.984375 97.183594 12.316406 97.183594 9.046875 L 97.183594 5.0625 Z M 73.796875 5.0625 "/></g></svg>