<svg xmlns="http://www.w3.org/2000/svg" xmlns:xlink="http://www.w3.org/1999/xlink" width="390" zoomAndPan="magnify" viewBox="0 0 292.5 54.75" height="73" preserveAspectRatio="xMidYMid meet" version="1.2"><defs><clipPath id="4d77eef4ca"><path d="M 0.414062 0 L 291.585938 0 L 291.585938 54.5 L 0.414062 54.5 Z M 0.414062 0 "/></clipPath><clipPath id="b739d25c6c"><path d="M 59.0625 38 L 68 38 L 68 47.472656 L 59.0625 47.472656 Z M 59.0625 38 "/></clipPath><clipPath id="37bcf658fd"><path d="M 67 40 L 74 40 L 74 47.472656 L 67 47.472656 Z M 67 40 "/></clipPath><clipPath id="9c1938dddc"><path d="M 74 40 L 81 40 L 81 47.472656 L 74 47.472656 Z M 74 40 "/></clipPath><clipPath id="bc82b24789"><path d="M 81 40 L 88 40 L 88 47.472656 L 81 47.472656 Z M 81 40 "/></clipPath><clipPath id="4d19ef6ad3"><path d="M 88 38 L 93 38 L 93 47.472656 L 88 47.472656 Z M 88 38 "/></clipPath><clipPath id="a0489397e8"><path d="M 92 40 L 100 40 L 100 47.472656 L 92 47.472656 Z M 92 40 "/></clipPath><clipPath id="06226d91b2"><path d="M 99 40 L 107 40 L 107 47.472656 L 99 47.472656 Z M 99 40 "/></clipPath><clipPath id="41012d264d"><path d="M 111 38 L 116 38 L 116 47.472656 L 111 47.472656 Z M 111 38 "/></clipPath><clipPath id="0a7fb76800"><path d="M 115 40 L 123 40 L 123 47.472656 L 115 47.472656 Z M 115 40 "/></clipPath><clipPath id="7d6b7a742f"><path d="M 126 38 L 136 38 L 136 47.472656 L 126 47.472656 Z M 126 38 "/></clipPath><clipPath id="cfbb432d14"><path d="M 134 40 L 143 40 L 143 47.472656 L 134 47.472656 Z M 134 40 "/></clipPath><clipPath id="5b9e8a7d3a"><path d="M 142 40 L 149 40 L 149 47.472656 L 142 47.472656 Z M 142 40 "/></clipPath><clipPath id="60bab3db34"><path d="M 149 40 L 156 40 L 156 47.472656 L 149 47.472656 Z M 149 40 "/></clipPath><clipPath id="a2b8e1e544"><path d="M 156 40 L 163 40 L 163 47.472656 L 156 47.472656 Z M 156 40 "/></clipPath><clipPath id="392ae5d245"><path d="M 163 38 L 172 38 L 172 47.472656 L 163 47.472656 Z M 163 38 "/></clipPath><clipPath id="32900057df"><path d="M 175 38 L 184 38 L 184 47.472656 L 175 47.472656 Z M 175 38 "/></clipPath><clipPath id="22b995facc"><path d="M 183 40 L 189 40 L 189 47.472656 L 183 47.472656 Z M 183 40 "/></clipPath><clipPath id="fb506da520"><path d="M 188 40 L 195 40 L 195 47.472656 L 188 47.472656 Z M 188 40 "/></clipPath><clipPath id="6d542079cf"><path d="M 195 40 L 203 40 L 203 47.472656 L 195 47.472656 Z M 195 40 "/></clipPath><clipPath id="1087d9ccd3"><path d="M 202 38 L 207 38 L 207 47.472656 L 202 47.472656 Z M 202 38 "/></clipPath><clipPath id="e88191be06"><path d="M 205 40 L 213 40 L 213 47.472656 L 205 47.472656 Z M 205 40 "/></clipPath><clipPath id="6e1f468189"><path d="M 212 38 L 217 38 L 217 47.472656 L 212 47.472656 Z M 212 38 "/></clipPath><clipPath id="e0616150bc"><path d="M 216 40 L 224 40 L 224 47.472656 L 216 47.472656 Z M 216 40 "/></clipPath><clipPath id="e2177b8c49"><path d="M 224 40 L 232 40 L 232 47.472656 L 224 47.472656 Z M 224 40 "/></clipPath><clipPath id="1a82986052"><path d="M 59.0625 7.15625 L 233.015625 7.15625 L 233.015625 32 L 59.0625 32 Z M 59.0625 7.15625 "/></clipPath></defs><g id="9228c0750b"><g clip-rule="nonzero" clip-path="url(#4d77eef4ca)"><path style=" stroke:none;fill-rule:nonzero;fill:#ffffff;fill-opacity:1;" d="M 0.414062 0 L 291.585938 0 L 291.585938 54.5 L 0.414062 54.5 Z M 0.414062 0 "/><path style=" stroke:none;fill-rule:nonzero;fill:#ffffff;fill-opacity:1;" d="M 0.414062 0 L 291.585938 0 L 291.585938 54.5 L 0.414062 54.5 Z M 0.414062 0 "/></g><g clip-rule="nonzero" clip-path="url(#b739d25c6c)"><path style=" stroke:none;fill-rule:nonzero;fill:#e8380d;fill-opacity:1;" d="M 61.640625 43.992188 L 63.789062 43.992188 C 66.199219 43.992188 67.082031 41.9375 67.257812 41.125 C 67.628906 39.359375 66.816406 38.246094 65.082031 38.246094 L 60.988281 38.246094 L 59.082031 47.238281 L 60.953125 47.238281 Z M 61.96875 42.441406 L 62.53125 39.796875 L 64.015625 39.796875 C 65.179688 39.796875 65.589844 40.160156 65.402344 41.039062 C 65.316406 41.4375 65.105469 42.441406 63.707031 42.441406 Z M 61.96875 42.441406 "/></g><g clip-rule="nonzero" clip-path="url(#37bcf658fd)"><path style=" stroke:none;fill-rule:nonzero;fill:#e8380d;fill-opacity:1;" d="M 73.585938 42.328125 C 73.933594 40.6875 72.285156 40.398438 71.347656 40.398438 C 69.984375 40.398438 68.515625 40.6875 67.882812 42.730469 L 69.570312 42.730469 C 69.699219 42.339844 69.964844 41.800781 70.839844 41.800781 C 71.289062 41.800781 71.980469 41.839844 71.824219 42.578125 C 71.742188 42.953125 71.382812 43.066406 71.101562 43.105469 L 69.476562 43.339844 C 68.328125 43.503906 67.367188 44.167969 67.089844 45.472656 C 66.796875 46.847656 67.703125 47.414062 68.703125 47.414062 C 69.886719 47.414062 70.566406 46.863281 71.054688 46.449219 C 71.011719 46.824219 71.015625 46.921875 71.046875 47.238281 L 72.933594 47.238281 L 72.988281 46.972656 C 72.792969 46.898438 72.65625 46.722656 72.824219 45.933594 Z M 71.34375 44.84375 C 71.167969 45.660156 70.277344 46.160156 69.503906 46.160156 C 69.167969 46.160156 68.730469 45.972656 68.863281 45.359375 C 69.015625 44.632812 69.585938 44.46875 70.261719 44.359375 C 71.007812 44.242188 71.320312 44.132812 71.523438 43.992188 Z M 71.34375 44.84375 "/></g><g clip-rule="nonzero" clip-path="url(#9c1938dddc)"><path style=" stroke:none;fill-rule:nonzero;fill:#e8380d;fill-opacity:1;" d="M 79.160156 42.601562 C 79.175781 42.179688 79.121094 41.726562 78.171875 41.726562 C 77.222656 41.726562 77.023438 42.089844 76.960938 42.378906 C 76.738281 43.429688 81.058594 42.667969 80.539062 45.121094 C 80.125 47.0625 78.179688 47.414062 77.140625 47.414062 C 75.632812 47.414062 74.105469 46.886719 74.433594 45.109375 L 76.234375 45.109375 C 76.113281 45.671875 76.375 46.085938 77.472656 46.085938 C 78.371094 46.085938 78.675781 45.644531 78.730469 45.394531 C 78.96875 44.28125 74.667969 45.121094 75.195312 42.628906 C 75.402344 41.652344 76.28125 40.398438 78.351562 40.398438 C 79.652344 40.398438 81.132812 40.726562 80.871094 42.601562 Z M 79.160156 42.601562 "/></g><g clip-rule="nonzero" clip-path="url(#bc82b24789)"><path style=" stroke:none;fill-rule:nonzero;fill:#e8380d;fill-opacity:1;" d="M 86.175781 42.601562 C 86.191406 42.179688 86.136719 41.726562 85.1875 41.726562 C 84.238281 41.726562 84.035156 42.089844 83.976562 42.378906 C 83.75 43.429688 88.070312 42.667969 87.550781 45.121094 C 87.140625 47.0625 85.191406 47.414062 84.15625 47.414062 C 82.644531 47.414062 81.121094 46.886719 81.449219 45.109375 L 83.246094 45.109375 C 83.128906 45.671875 83.386719 46.085938 84.488281 46.085938 C 85.386719 46.085938 85.691406 45.644531 85.746094 45.394531 C 85.980469 44.28125 81.683594 45.121094 82.210938 42.628906 C 82.417969 41.652344 83.292969 40.398438 85.367188 40.398438 C 86.667969 40.398438 88.144531 40.726562 87.882812 42.601562 Z M 86.175781 42.601562 "/></g><g clip-rule="nonzero" clip-path="url(#4d19ef6ad3)"><path style=" stroke:none;fill-rule:nonzero;fill:#e8380d;fill-opacity:1;" d="M 91.835938 39.785156 L 90.085938 39.785156 L 90.429688 38.15625 L 92.179688 38.15625 Z M 91.667969 40.574219 L 90.253906 47.238281 L 88.507812 47.238281 L 89.921875 40.574219 Z M 91.667969 40.574219 "/></g><g clip-rule="nonzero" clip-path="url(#a0489397e8)"><path style=" stroke:none;fill-rule:nonzero;fill:#e8380d;fill-opacity:1;" d="M 99.03125 43.90625 C 99.542969 41.503906 98.164062 40.398438 96.378906 40.398438 C 94.59375 40.398438 92.75 41.503906 92.238281 43.90625 C 91.726562 46.3125 93.109375 47.414062 94.894531 47.414062 C 96.679688 47.414062 98.523438 46.3125 99.03125 43.90625 M 97.234375 43.90625 C 97.054688 44.757812 96.554688 45.933594 95.207031 45.933594 C 93.855469 45.933594 93.855469 44.757812 94.039062 43.90625 C 94.21875 43.054688 94.71875 41.875 96.066406 41.875 C 97.414062 41.875 97.414062 43.054688 97.234375 43.90625 "/></g><g clip-rule="nonzero" clip-path="url(#06226d91b2)"><path style=" stroke:none;fill-rule:nonzero;fill:#e8380d;fill-opacity:1;" d="M 105.574219 47.238281 L 103.824219 47.238281 L 104.679688 43.191406 C 104.785156 42.703125 104.933594 41.875 103.824219 41.875 C 103.050781 41.875 102.339844 42.402344 102.125 43.417969 L 101.316406 47.238281 L 99.566406 47.238281 L 100.976562 40.574219 L 102.652344 40.574219 L 102.445312 41.550781 L 102.46875 41.550781 C 102.792969 41.152344 103.449219 40.398438 104.710938 40.398438 C 106.007812 40.398438 106.859375 41.164062 106.546875 42.628906 Z M 105.574219 47.238281 "/></g><g clip-rule="nonzero" clip-path="url(#41012d264d)"><path style=" stroke:none;fill-rule:nonzero;fill:#003b90;fill-opacity:1;" d="M 114.835938 40.574219 L 115.921875 40.574219 L 115.65625 41.828125 L 114.570312 41.828125 L 113.804688 45.445312 C 113.722656 45.835938 113.703125 45.984375 114.410156 45.984375 C 114.527344 45.984375 114.652344 45.972656 114.777344 45.960938 L 114.5 47.289062 C 114.222656 47.300781 113.945312 47.3125 113.667969 47.3125 L 113.445312 47.3125 C 111.933594 47.3125 111.78125 46.734375 111.964844 45.871094 L 112.820312 41.828125 L 111.921875 41.828125 L 112.1875 40.574219 L 113.085938 40.574219 L 113.46875 38.773438 L 115.21875 38.773438 Z M 114.835938 40.574219 "/></g><g clip-rule="nonzero" clip-path="url(#0a7fb76800)"><path style=" stroke:none;fill-rule:nonzero;fill:#003b90;fill-opacity:1;" d="M 122.894531 43.90625 C 123.402344 41.503906 122.027344 40.398438 120.242188 40.398438 C 118.457031 40.398438 116.613281 41.503906 116.101562 43.90625 C 115.59375 46.3125 116.96875 47.414062 118.757812 47.414062 C 120.539062 47.414062 122.382812 46.3125 122.894531 43.90625 M 121.097656 43.90625 C 120.914062 44.757812 120.417969 45.933594 119.070312 45.933594 C 117.71875 45.933594 117.71875 44.757812 117.898438 43.90625 C 118.082031 43.054688 118.578125 41.875 119.925781 41.875 C 121.273438 41.875 121.277344 43.054688 121.097656 43.90625 "/></g><g clip-rule="nonzero" clip-path="url(#7d6b7a742f)"><path style=" stroke:none;fill-rule:nonzero;fill:#003b90;fill-opacity:1;" d="M 135.121094 39.835938 L 130.363281 39.835938 L 129.964844 41.726562 L 134.335938 41.726562 L 134 43.316406 L 129.625 43.316406 L 129.132812 45.648438 L 134.101562 45.648438 L 133.765625 47.238281 L 126.960938 47.238281 L 128.867188 38.246094 L 135.460938 38.246094 Z M 135.121094 39.835938 "/></g><g clip-rule="nonzero" clip-path="url(#cfbb432d14)"><path style=" stroke:none;fill-rule:nonzero;fill:#003b90;fill-opacity:1;" d="M 141.132812 47.238281 L 138.972656 47.238281 L 138.246094 45.234375 L 136.675781 47.238281 L 134.5625 47.238281 L 137.542969 43.84375 L 136.0625 40.574219 L 138.183594 40.574219 L 138.898438 42.515625 L 140.410156 40.574219 L 142.46875 40.574219 L 139.589844 43.84375 Z M 141.132812 47.238281 "/></g><g clip-rule="nonzero" clip-path="url(#5b9e8a7d3a)"><path style=" stroke:none;fill-rule:nonzero;fill:#003b90;fill-opacity:1;" d="M 148.117188 44.808594 C 147.90625 45.496094 146.964844 47.414062 144.527344 47.414062 C 142.03125 47.414062 141.863281 45.496094 142.160156 44.09375 C 142.617188 41.9375 143.878906 40.398438 146.128906 40.398438 C 147.175781 40.398438 148.800781 40.875 148.519531 42.953125 L 146.746094 42.953125 C 146.765625 42.515625 146.636719 41.824219 145.8125 41.875 C 144.714844 41.875 144.195312 42.980469 144.019531 43.804688 C 143.863281 44.535156 143.585938 45.972656 144.910156 45.972656 C 145.796875 45.972656 146.277344 45.121094 146.34375 44.808594 Z M 148.117188 44.808594 "/></g><g clip-rule="nonzero" clip-path="url(#60bab3db34)"><path style=" stroke:none;fill-rule:nonzero;fill:#003b90;fill-opacity:1;" d="M 153.308594 45.285156 C 153.070312 45.757812 152.519531 46.007812 152.03125 46.007812 C 150.621094 46.007812 150.761719 44.882812 150.816406 44.382812 L 155.371094 44.382812 L 155.4375 44.070312 C 156.082031 41.027344 154.40625 40.398438 153.09375 40.398438 C 150.1875 40.398438 149.367188 42.964844 149.195312 43.769531 C 148.617188 46.511719 149.863281 47.414062 151.734375 47.414062 C 152.871094 47.414062 154.304688 46.886719 155.105469 45.285156 Z M 151.105469 43.242188 C 151.394531 42.367188 151.941406 41.839844 152.765625 41.839844 C 153.328125 41.839844 153.945312 42.164062 153.816406 43.242188 Z M 151.105469 43.242188 "/></g><g clip-rule="nonzero" clip-path="url(#a2b8e1e544)"><path style=" stroke:none;fill-rule:nonzero;fill:#003b90;fill-opacity:1;" d="M 160.414062 45.285156 C 160.175781 45.757812 159.621094 46.007812 159.136719 46.007812 C 157.726562 46.007812 157.863281 44.882812 157.921875 44.382812 L 162.476562 44.382812 L 162.542969 44.070312 C 163.1875 41.027344 161.511719 40.398438 160.199219 40.398438 C 157.289062 40.398438 156.472656 42.964844 156.304688 43.769531 C 155.71875 46.511719 156.964844 47.414062 158.839844 47.414062 C 159.972656 47.414062 161.410156 46.886719 162.210938 45.285156 Z M 158.210938 43.242188 C 158.496094 42.367188 159.046875 41.839844 159.871094 41.839844 C 160.429688 41.839844 161.050781 42.164062 160.921875 43.242188 Z M 158.210938 43.242188 "/></g><g clip-rule="nonzero" clip-path="url(#392ae5d245)"><path style=" stroke:none;fill-rule:nonzero;fill:#003b90;fill-opacity:1;" d="M 171.171875 38.246094 L 169.421875 38.246094 L 168.746094 41.4375 L 168.71875 41.4375 C 168.535156 41.015625 168.140625 40.398438 167.015625 40.398438 C 165.558594 40.398438 164.019531 41.527344 163.53125 43.832031 C 163.140625 45.660156 163.597656 47.414062 165.570312 47.414062 C 166.292969 47.414062 167.121094 47.152344 167.707031 46.398438 L 167.734375 46.398438 L 167.554688 47.238281 L 169.265625 47.238281 Z M 165.300781 43.957031 C 165.527344 42.902344 166.109375 41.914062 167.222656 41.914062 C 168.417969 41.914062 168.492188 42.992188 168.265625 44.058594 C 168.054688 45.046875 167.421875 45.972656 166.3125 45.972656 C 165.1875 45.972656 165.136719 44.746094 165.300781 43.957031 "/></g><g clip-rule="nonzero" clip-path="url(#32900057df)"><path style=" stroke:none;fill-rule:nonzero;fill:#003b90;fill-opacity:1;" d="M 177.617188 43.992188 L 179.765625 43.992188 C 182.175781 43.992188 183.058594 41.9375 183.234375 41.125 C 183.609375 39.359375 182.796875 38.246094 181.058594 38.246094 L 176.960938 38.246094 L 175.058594 47.238281 L 176.929688 47.238281 Z M 177.945312 42.441406 L 178.507812 39.796875 L 179.992188 39.796875 C 181.15625 39.796875 181.5625 40.160156 181.378906 41.039062 C 181.292969 41.4375 181.078125 42.441406 179.683594 42.441406 Z M 177.945312 42.441406 "/></g><g clip-rule="nonzero" clip-path="url(#22b995facc)"><path style=" stroke:none;fill-rule:nonzero;fill:#003b90;fill-opacity:1;" d="M 184.578125 40.574219 L 186.25 40.574219 L 186.007812 41.726562 L 186.03125 41.726562 C 186.539062 41.050781 187.074219 40.398438 188.136719 40.398438 C 188.25 40.398438 188.359375 40.414062 188.46875 40.425781 L 188.09375 42.203125 C 187.945312 42.175781 187.757812 42.175781 187.597656 42.175781 C 186.238281 42.175781 185.808594 43.027344 185.648438 43.769531 L 184.914062 47.238281 L 183.167969 47.238281 Z M 184.578125 40.574219 "/></g><g clip-rule="nonzero" clip-path="url(#fb506da520)"><path style=" stroke:none;fill-rule:nonzero;fill:#003b90;fill-opacity:1;" d="M 192.601562 45.285156 C 192.363281 45.757812 191.8125 46.007812 191.324219 46.007812 C 189.910156 46.007812 190.050781 44.882812 190.105469 44.382812 L 194.664062 44.382812 L 194.730469 44.070312 C 195.375 41.027344 193.699219 40.398438 192.386719 40.398438 C 189.476562 40.398438 188.660156 42.964844 188.488281 43.769531 C 187.90625 46.511719 189.152344 47.414062 191.023438 47.414062 C 192.160156 47.414062 193.59375 46.886719 194.398438 45.285156 Z M 190.398438 43.242188 C 190.683594 42.367188 191.230469 41.839844 192.054688 41.839844 C 192.617188 41.839844 193.234375 42.164062 193.109375 43.242188 Z M 190.398438 43.242188 "/></g><g clip-rule="nonzero" clip-path="url(#6d542079cf)"><path style=" stroke:none;fill-rule:nonzero;fill:#003b90;fill-opacity:1;" d="M 201.691406 44.808594 C 201.484375 45.496094 200.539062 47.414062 198.105469 47.414062 C 195.609375 47.414062 195.4375 45.496094 195.738281 44.09375 C 196.191406 41.9375 197.453125 40.398438 199.703125 40.398438 C 200.75 40.398438 202.375 40.875 202.097656 42.953125 L 200.324219 42.953125 C 200.339844 42.515625 200.214844 41.824219 199.390625 41.875 C 198.289062 41.875 197.769531 42.980469 197.59375 43.804688 C 197.441406 44.535156 197.160156 45.972656 198.484375 45.972656 C 199.371094 45.972656 199.851562 45.121094 199.917969 44.808594 Z M 201.691406 44.808594 "/></g><g clip-rule="nonzero" clip-path="url(#1087d9ccd3)"><path style=" stroke:none;fill-rule:nonzero;fill:#003b90;fill-opacity:1;" d="M 205.921875 39.785156 L 204.171875 39.785156 L 204.519531 38.15625 L 206.265625 38.15625 Z M 205.753906 40.574219 L 204.339844 47.238281 L 202.59375 47.238281 L 204.007812 40.574219 Z M 205.753906 40.574219 "/></g><g clip-rule="nonzero" clip-path="url(#e88191be06)"><path style=" stroke:none;fill-rule:nonzero;fill:#003b90;fill-opacity:1;" d="M 210.71875 42.601562 C 210.734375 42.179688 210.679688 41.726562 209.730469 41.726562 C 208.78125 41.726562 208.578125 42.089844 208.519531 42.378906 C 208.296875 43.429688 212.613281 42.667969 212.09375 45.121094 C 211.683594 47.0625 209.738281 47.414062 208.699219 47.414062 C 207.191406 47.414062 205.664062 46.886719 205.992188 45.109375 L 207.789062 45.109375 C 207.671875 45.671875 207.933594 46.085938 209.03125 46.085938 C 209.929688 46.085938 210.234375 45.644531 210.289062 45.394531 C 210.527344 44.28125 206.226562 45.121094 206.753906 42.628906 C 206.960938 41.652344 207.839844 40.398438 209.914062 40.398438 C 211.210938 40.398438 212.691406 40.726562 212.429688 42.601562 Z M 210.71875 42.601562 "/></g><g clip-rule="nonzero" clip-path="url(#6e1f468189)"><path style=" stroke:none;fill-rule:nonzero;fill:#003b90;fill-opacity:1;" d="M 216.28125 39.785156 L 214.535156 39.785156 L 214.878906 38.15625 L 216.628906 38.15625 Z M 216.117188 40.574219 L 214.703125 47.238281 L 212.957031 47.238281 L 214.367188 40.574219 Z M 216.117188 40.574219 "/></g><g clip-rule="nonzero" clip-path="url(#e0616150bc)"><path style=" stroke:none;fill-rule:nonzero;fill:#003b90;fill-opacity:1;" d="M 223.460938 43.90625 C 223.96875 41.503906 222.59375 40.398438 220.808594 40.398438 C 219.023438 40.398438 217.175781 41.503906 216.667969 43.90625 C 216.15625 46.3125 217.535156 47.414062 219.320312 47.414062 C 221.105469 47.414062 222.949219 46.3125 223.460938 43.90625 M 221.664062 43.90625 C 221.480469 44.757812 220.980469 45.933594 219.632812 45.933594 C 218.285156 45.933594 218.285156 44.757812 218.464844 43.90625 C 218.644531 43.054688 219.144531 41.875 220.492188 41.875 C 221.84375 41.875 221.84375 43.054688 221.664062 43.90625 "/></g><g clip-rule="nonzero" clip-path="url(#e2177b8c49)"><path style=" stroke:none;fill-rule:nonzero;fill:#003b90;fill-opacity:1;" d="M 230.105469 47.238281 L 228.355469 47.238281 L 229.214844 43.191406 C 229.316406 42.703125 229.464844 41.875 228.355469 41.875 C 227.582031 41.875 226.871094 42.402344 226.65625 43.417969 L 225.847656 47.238281 L 224.097656 47.238281 L 225.507812 40.574219 L 227.183594 40.574219 L 226.976562 41.550781 L 227 41.550781 C 227.320312 41.152344 227.980469 40.398438 229.242188 40.398438 C 230.542969 40.398438 231.390625 41.164062 231.082031 42.628906 Z M 230.105469 47.238281 "/></g><g clip-rule="nonzero" clip-path="url(#1a82986052)"><path style=" stroke:none;fill-rule:nonzero;fill:#003b90;fill-opacity:1;" d="M 92.496094 7.21875 C 91.640625 7.21875 90.292969 7.300781 89.6875 7.429688 C 88.40625 7.703125 87.597656 8.171875 86.847656 8.992188 C 86.609375 9.25 86.140625 9.839844 85.59375 10.742188 L 77.894531 23.523438 L 75.898438 10.429688 C 75.789062 9.753906 75.648438 9.285156 75.433594 8.871094 C 75.058594 8.132812 74.503906 7.613281 73.394531 7.378906 C 73.03125 7.300781 72.335938 7.21875 71.535156 7.21875 L 64.144531 7.21875 L 59.0625 31.21875 L 66.792969 31.21875 L 69.921875 16.449219 L 70.117188 16.449219 L 72.523438 31.21875 L 76.308594 31.21875 C 76.835938 31.21875 77.277344 31.199219 77.582031 31.152344 C 78.585938 30.984375 79.152344 30.578125 80.039062 29.082031 L 87.597656 16.449219 L 87.828125 16.449219 L 84.699219 31.21875 L 92.398438 31.21875 L 97.476562 7.21875 Z M 107.167969 11.4375 L 107.664062 9.113281 C 107.738281 8.722656 107.773438 8.457031 107.75 8.265625 C 107.6875 7.742188 107.359375 7.390625 106.832031 7.269531 C 106.6875 7.234375 106.4375 7.21875 106.125 7.21875 L 100.507812 7.21875 L 99.613281 11.4375 Z M 106.398438 15.105469 L 102.976562 31.21875 L 95.425781 31.21875 L 99.242188 13.210938 L 104.859375 13.210938 C 105.175781 13.210938 105.425781 13.230469 105.570312 13.261719 C 106.101562 13.382812 106.425781 13.734375 106.484375 14.257812 C 106.507812 14.449219 106.476562 14.714844 106.398438 15.105469 M 129.820312 14.027344 C 128.441406 13.074219 126.808594 12.867188 125.003906 12.867188 C 122.703125 12.867188 119.765625 13.570312 117.027344 15.488281 L 117.101562 15.121094 C 117.171875 14.742188 117.191406 14.53125 117.1875 14.359375 C 117.167969 13.871094 116.972656 13.527344 116.496094 13.355469 C 116.28125 13.28125 115.976562 13.210938 115.148438 13.210938 L 109.832031 13.210938 L 106.015625 31.21875 L 113.691406 31.21875 L 115.363281 23.3125 C 115.679688 21.898438 115.984375 21.046875 116.269531 20.472656 C 117.066406 18.863281 118.507812 17.890625 120.46875 17.8125 C 123.050781 17.707031 124.082031 19.152344 123.535156 21.730469 L 121.5 31.21875 L 129.144531 31.21875 L 131.148438 21.773438 C 131.84375 18.480469 132.4375 15.828125 129.820312 14.027344 M 174.382812 22.027344 C 173.695312 25.273438 171.585938 27.464844 169.183594 27.464844 C 166.851562 27.464844 165.613281 25.226562 166.269531 22.113281 C 166.914062 19.085938 169.011719 16.941406 171.285156 16.941406 C 173.722656 16.941406 175.121094 18.5625 174.382812 22.027344 M 174.949219 12.664062 C 172.308594 12.664062 170.351562 13.207031 167.886719 14.804688 L 169.070312 9.191406 C 169.15625 8.785156 169.191406 8.527344 169.175781 8.347656 C 169.144531 7.878906 168.914062 7.507812 168.464844 7.332031 C 168.28125 7.261719 167.996094 7.222656 167.441406 7.222656 L 161.878906 7.222656 L 156.792969 31.21875 L 164.433594 31.21875 L 164.777344 29.621094 C 166.503906 30.917969 167.949219 31.527344 170.375 31.527344 C 175.890625 31.527344 180.648438 28.09375 181.925781 22.074219 C 183.136719 16.367188 180.339844 12.664062 174.949219 12.664062 M 221.929688 16.359375 C 223.535156 16.316406 226.050781 16.503906 225.234375 19.820312 C 221.957031 19.898438 214.453125 19.882812 211.191406 21.863281 C 209.542969 22.863281 208.453125 24.144531 208.070312 25.949219 C 207.148438 30.296875 210.609375 31.789062 214.386719 31.757812 C 217.390625 31.734375 220.347656 30.742188 223.324219 29.484375 C 223.234375 30.066406 223.214844 30.652344 223.246094 31.214844 L 231.152344 31.214844 C 230.578125 30.253906 230.527344 29.679688 230.824219 28.324219 L 232.765625 19.1875 C 233.074219 17.722656 233.207031 16.332031 232.519531 15.175781 C 231.023438 12.660156 225.710938 12.589844 222.84375 12.589844 C 220.195312 12.589844 215.585938 12.859375 213.125 14.734375 C 211.660156 15.851562 210.898438 17.179688 210.292969 18.8125 L 217.621094 18.8125 C 218.519531 16.746094 220.320312 16.402344 221.929688 16.359375 M 224.492188 22.816406 C 224.296875 23.398438 223.875 24.355469 223.292969 24.96875 C 221.988281 26.394531 219.546875 27.113281 217.9375 27.113281 C 216.875 27.113281 215.402344 26.597656 215.699219 25.167969 C 216.121094 23.199219 219.242188 23.089844 220.542969 23.019531 C 221.851562 22.949219 224.492188 22.816406 224.492188 22.816406 M 207.574219 23.335938 C 207.746094 22.214844 207.9375 21.160156 207.917969 20.042969 C 207.910156 18.714844 207.417969 17.386719 206.785156 16.402344 C 204.832031 13.3125 200.863281 12.699219 197.183594 12.699219 C 194.214844 12.699219 190.910156 13.074219 188.027344 14.941406 C 185.371094 16.675781 183.621094 19.15625 182.992188 22.113281 C 181.464844 29.320312 187.371094 31.746094 193.214844 31.734375 C 198.527344 31.722656 203.582031 30.203125 206.707031 25.871094 C 206.816406 25.710938 206.757812 25.542969 206.515625 25.542969 L 198.722656 25.542969 C 197.539062 26.914062 196.363281 27.601562 194.445312 27.601562 C 191.910156 27.601562 190.199219 26.039062 190.605469 23.335938 Z M 196.769531 16.34375 C 198.800781 16.261719 200.960938 17.632812 200.234375 20.214844 L 191.527344 20.214844 C 191.527344 20.214844 192.304688 16.519531 196.769531 16.34375 M 157.035156 23.335938 C 157.203125 22.214844 157.394531 21.160156 157.375 20.042969 C 157.371094 18.714844 156.878906 17.386719 156.246094 16.402344 C 154.289062 13.3125 150.320312 12.699219 146.640625 12.699219 C 143.675781 12.699219 140.367188 13.074219 137.484375 14.941406 C 134.828125 16.675781 133.078125 19.15625 132.453125 22.113281 C 130.921875 29.320312 136.832031 31.746094 142.671875 31.734375 C 147.984375 31.722656 153.042969 30.203125 156.167969 25.871094 C 156.273438 25.710938 156.214844 25.542969 155.976562 25.542969 L 148.179688 25.542969 C 146.996094 26.914062 145.820312 27.601562 143.902344 27.601562 C 141.367188 27.601562 139.65625 26.039062 140.0625 23.335938 Z M 146.226562 16.34375 C 148.261719 16.261719 150.421875 17.632812 149.695312 20.214844 L 140.984375 20.214844 C 140.984375 20.214844 141.761719 16.519531 146.226562 16.34375 "/></g></g></svg>