<svg xmlns="http://www.w3.org/2000/svg" xmlns:xlink="http://www.w3.org/1999/xlink" width="500" zoomAndPan="magnify" viewBox="0 0 375 374.999991" height="500" preserveAspectRatio="xMidYMid meet" version="1.2"><g id="0fd73f3abe"><path style=" stroke:none;fill-rule:nonzero;fill:#000000;fill-opacity:1;" d="M 152.644531 221.582031 C 143.960938 221.582031 136.886719 216.921875 136.886719 212.035156 L 136.886719 185.75 L 150.574219 185.75 L 150.574219 209.675781 C 150.574219 211.34375 152.300781 212.722656 154.371094 212.722656 C 156.5 212.722656 158.226562 211.34375 158.226562 209.675781 L 158.226562 185.75 L 171.914062 185.75 L 171.914062 212.035156 C 171.914062 216.921875 164.894531 221.582031 156.152344 221.582031 Z M 282.6875 221.582031 C 291.371094 221.582031 298.390625 216.921875 298.390625 212.035156 L 298.390625 185.691406 L 284.699219 185.691406 L 284.699219 209.675781 C 284.699219 211.34375 282.976562 212.722656 280.847656 212.722656 C 278.71875 212.722656 277.050781 211.34375 277.050781 209.675781 L 277.050781 185.691406 L 263.421875 185.691406 L 263.421875 212.035156 C 263.421875 216.921875 270.4375 221.582031 279.121094 221.582031 Z M 201.535156 179.308594 L 209.242188 179.308594 C 212.347656 179.308594 214.820312 176.777344 214.820312 173.730469 L 214.820312 168.496094 L 201.535156 168.496094 Z M 214.878906 185.75 L 201.589844 185.75 L 201.589844 220.71875 L 214.878906 220.71875 Z M 360.5625 213.703125 C 360.5625 219.394531 356.769531 220.203125 354.984375 220.71875 C 352.625 221.410156 348.601562 221.8125 343.25 221.8125 C 338.59375 221.8125 333.53125 221.582031 330.082031 219.339844 C 326.6875 217.09375 326.628906 212.78125 326.628906 211.863281 L 326.628906 209.964844 C 326.628906 204.441406 329.273438 202.140625 332.839844 201.277344 C 336.40625 200.472656 343.367188 199.609375 344.917969 199.324219 C 346.761719 198.976562 346.761719 196.734375 346.761719 196.101562 C 346.761719 195.414062 346.703125 193.6875 345.09375 193.457031 C 342.964844 193.113281 334.683594 193.6875 331.171875 194.261719 L 331.171875 186.324219 C 332.667969 185.808594 338.132812 184.945312 341.582031 184.945312 C 345.035156 184.945312 347.738281 185.003906 351.589844 185.632812 C 356.191406 186.382812 360.449219 188.222656 360.449219 192.132812 L 360.449219 213.703125 Z M 343.597656 213.242188 C 347.449219 213.242188 346.988281 211.632812 346.988281 210.421875 L 346.988281 206.570312 C 345.78125 206.683594 344.34375 206.683594 343.710938 206.800781 C 342.332031 206.972656 340.03125 208.238281 340.03125 210.308594 L 340.03125 210.539062 C 340.03125 211.230469 340.261719 213.242188 343.597656 213.242188 M 134.066406 168.496094 L 103.296875 168.496094 C 97.949219 168.496094 93.636719 172.808594 93.636719 178.15625 L 93.636719 220.71875 L 109.566406 220.71875 L 109.566406 199.035156 L 130.503906 199.035156 L 130.503906 188.394531 L 109.507812 188.394531 L 109.507812 182.355469 C 109.507812 180.34375 111.175781 178.675781 113.191406 178.675781 L 134.011719 178.675781 L 134.011719 168.496094 Z M 179.621094 168.496094 L 179.621094 179.367188 L 187.5 179.367188 C 190.777344 179.367188 193.480469 176.664062 193.480469 173.269531 L 193.480469 168.496094 Z M 171.972656 230.667969 L 183.761719 230.667969 C 189.109375 230.667969 193.425781 226.355469 193.425781 221.007812 L 193.425781 185.75 L 179.5625 185.75 L 179.5625 220.660156 C 179.5625 222.386719 178.125 223.824219 176.398438 223.824219 L 171.972656 223.824219 Z M 249.617188 199.378906 L 246.683594 199.378906 L 260.027344 185.691406 L 245.015625 185.691406 L 236.386719 194.03125 L 236.386719 168.496094 L 222.929688 168.496094 L 222.929688 220.71875 L 236.386719 220.71875 L 236.386719 205.074219 L 241.621094 205.074219 C 243.117188 205.074219 244.324219 206.28125 244.324219 207.777344 L 244.324219 220.777344 L 257.957031 220.777344 L 257.957031 207.71875 C 257.957031 203.121094 254.21875 199.378906 249.617188 199.378906 M 317.828125 197.136719 C 317.828125 195.414062 319.210938 194.089844 320.9375 194.03125 C 321.972656 193.972656 325.132812 194.148438 326.746094 194.320312 L 326.746094 185.75 C 321.109375 184.945312 316.160156 185.347656 314.550781 185.460938 C 308.855469 185.808594 304.945312 189.777344 304.945312 195.066406 L 304.945312 220.71875 L 317.828125 220.71875 Z M 317.828125 197.136719 "/><path style=" stroke:none;fill-rule:nonzero;fill:#003b83;fill-opacity:1;" d="M 35.085938 220.316406 C 38.535156 220.316406 41.527344 218.074219 42.617188 215.023438 L 51.304688 191.097656 L 66.773438 191.097656 C 73.621094 191.097656 79.199219 185.519531 79.199219 178.675781 L 79.199219 168.265625 L 44.574219 168.265625 C 38.363281 168.265625 33.015625 172.175781 31 177.699219 L 15.472656 220.316406 Z M 35.085938 220.316406 "/><path style=" stroke:none;fill-rule:nonzero;fill:#00b9ef;fill-opacity:1;" d="M 36.351562 141.003906 C 24.847656 141.003906 15.527344 150.320312 15.527344 161.824219 L 15.527344 201.566406 L 25.019531 175.511719 C 27.953125 167.515625 35.601562 161.765625 44.632812 161.765625 L 72.871094 161.765625 C 79.714844 161.765625 85.296875 156.1875 85.296875 149.34375 L 85.296875 141.003906 Z M 36.351562 141.003906 "/></g></svg>